<?xml version="1.0" encoding="UTF-8"?>
<svg width="119px" height="100px" viewBox="0 0 119 100" version="1.1" xmlns="http://www.w3.org/2000/svg" xmlns:xlink="http://www.w3.org/1999/xlink">
    <title>76460F3B-A6BD-4B0B-91DF-D847574EEFB3</title>
    <defs>
        <polygon id="path-1" points="6 0 12 14.4633271 0 14.4633271"></polygon>
    </defs>
    <g id="0" stroke="none" stroke-width="1" fill="none" fill-rule="evenodd">
        <g id="WorthEPenny-review2" transform="translate(-382.000000, -5976.000000)">
            <g id="编组-42" transform="translate(360.000000, 5953.000000)">
                <g id="编组-39" transform="translate(22.000000, 23.000000)">
                    <g id="编组-31" transform="translate(59.000000, 52.005992) rotate(-15.000000) translate(-59.000000, -52.005992) translate(23.000000, 13.001498)">
                        <path d="M9.66379396,5.59297936 L62.3071299,5.62186204 C64.1865127,5.62289316 65.7097951,7.14617805 65.7108232,9.02556082 L65.7436364,69.0085695 C65.7446653,70.8894093 64.2207775,72.4149654 62.3399376,72.4159943 C62.3386941,72.4159949 62.3374506,72.4159949 62.3362071,72.4159942 L9.69287407,72.3871252 C7.81349102,72.3860946 6.29020807,70.8628097 6.28917988,68.9834266 L6.25636374,9.00040427 C6.25533475,7.11956444 7.77922253,5.59400834 9.66006235,5.59297935 C9.66130622,5.59297867 9.66255009,5.59297867 9.66379396,5.59297936 Z" id="矩形" stroke="#C6CFDB" stroke-width="0.545531081" fill="#FDFDFF" transform="translate(36.000000, 39.004486) rotate(12.000000) translate(-36.000000, -39.004486) "></path>
                        <rect id="矩形" stroke="#C6CFDB" stroke-width="0.545531081" fill="#EFF2FF" x="2.13585948" y="3.43580917" width="59.4475302" height="70.9127883" rx="3.40556227"></rect>
                        <rect id="矩形备份-10" fill="#B3C4FF" opacity="0.592253779" x="32.8360972" y="15.9103535" width="19.4741909" height="3.08316471" rx="1.13518742"></rect>
                        <rect id="矩形备份-11" fill="#B3C4FF" opacity="0.592253779" x="32.8360972" y="23.1044044" width="19.4741909" height="3.08316471" rx="1.13518742"></rect>
                        <path d="M25.1163938,14.6537688 C25.4142607,14.6537688 25.6618122,14.716281 25.8590484,14.8413054 C26.0562846,14.9663297 26.2152811,15.1330289 26.336038,15.3414029 C26.4567949,15.5497768 26.5433373,15.7873232 26.5956652,16.0540418 C26.6479932,16.3207605 26.6741572,16.5958142 26.6741572,16.8792028 C26.6741572,17.5626694 26.617804,18.3148994 26.5050976,19.1358928 C26.3923912,19.9568863 26.2132685,20.7841309 25.9677296,21.6176268 C25.7221907,22.4511226 25.4122481,23.2575299 25.0379018,24.0368485 C24.6635556,24.8161672 24.2147426,25.5079687 23.6914629,26.1122533 C23.1681832,26.7165378 22.5684241,27.2020491 21.8921857,27.5687873 C21.2159473,27.9355255 20.4592044,28.1188946 19.6219568,28.1188946 C18.8169111,28.1188946 18.1587863,27.9417767 17.6475822,27.5875409 C17.1363782,27.2333052 16.8083221,26.6936166 16.6634139,25.9684752 C16.365547,26.4352329 16.0596296,26.8082223 15.7456618,27.0874434 C15.4316939,27.3666645 15.123764,27.5833735 14.8218718,27.7375702 C14.5199797,27.8917669 14.226138,27.9938702 13.9403468,28.0438799 C13.6545556,28.0938897 13.3909031,28.1188946 13.1493894,28.1188946 C12.7790684,28.1188946 12.4328987,28.0605498 12.1108804,27.9438604 C11.7888621,27.827171 11.5091088,27.6438019 11.2716203,27.3937532 C11.0341318,27.1437044 10.8469587,26.826976 10.7101009,26.4435679 C10.5732431,26.0601598 10.5048142,25.5975696 10.5048142,25.0557972 C10.5048142,24.8224184 10.5209152,24.5661184 10.553117,24.2868973 C10.5853188,24.0076762 10.6336216,23.7055339 10.6980252,23.3804705 L10.6980252,23.3804705 L11.8830916,17.5780226 C9.89237664,17.9710094 10.2576569,14.9646929 10.3864361,14.789391 C10.3882215,14.7841008 10.4065091,14.7807902 10.4412986,14.7794593 L10.5328804,14.7794368 C10.9872185,14.789905 12.4976868,14.9270682 15.0642854,15.1909263 C15.0379127,15.2648236 15.008456,15.3373889 14.9759152,15.408622 C15.3562369,15.6859626 15.5616982,16.1707721 15.4610359,16.6642205 L15.4610359,16.6642205 L13.9914684,23.8680656 C13.9431656,24.0847745 13.9190143,24.3014835 13.9190143,24.5181924 C13.9190143,24.6682217 13.9310899,24.809916 13.9552413,24.9432753 C13.9793927,25.0766346 14.019645,25.1954078 14.0759982,25.2995948 C14.1323514,25.4037818 14.2068181,25.4871313 14.2993984,25.5496435 C14.3919786,25.6121557 14.6769636,25.6434118 14.8218718,25.6434118 C15.0633855,25.6434118 15.290811,25.5871509 15.4920724,25.4746289 C15.6933338,25.362107 15.8764817,25.2058265 16.0415161,25.0057875 C16.2065504,24.8057485 16.3514587,24.5661184 16.4762407,24.2868973 C16.6010228,24.0076762 16.7117166,23.7055339 16.8083221,23.3804705 L16.8083221,23.3804705 L18.2828219,16.1647749 C18.4015654,15.5836851 18.9127827,15.1663687 19.5058807,15.1663687 L19.5058807,15.1663687 L20.0988947,15.1663687 C20.1827021,15.1663687 20.2662966,15.1748084 20.3484128,15.1915599 C21.0239357,15.329365 21.4598421,15.9886976 21.322037,16.6642205 L21.322037,16.6642205 L19.8524695,23.8680656 C19.7639145,24.2764786 19.719637,24.5848721 19.719637,24.793246 C19.719637,25.0516298 19.7860532,25.25792 19.9188858,25.4121167 C20.4727446,25.9881179 21.7754541,25.49755 22.1457751,25.2058265 C22.5160961,24.9141029 22.8582406,24.5286111 23.1722084,24.049351 C23.4861762,23.5700909 23.7719674,23.0262348 24.0295821,22.4177828 C24.2871967,21.8093308 24.5065716,21.1883764 24.6877069,20.5549195 C24.8688422,19.9214627 25.0097252,19.302592 25.1103559,18.6983075 C25.2109866,18.094023 25.261302,17.5585019 25.261302,17.0917442 C25.2452011,17.133419 25.2029362,17.1709263 25.1345073,17.2042661 C25.0660784,17.237606 24.9916117,17.2646946 24.9111071,17.285532 C24.8306025,17.3063694 24.750098,17.3209556 24.6695934,17.3292905 C24.5890888,17.3376255 24.5246852,17.341793 24.4763824,17.341793 C24.3314742,17.341793 24.2026669,17.3022019 24.0899605,17.2230198 C23.9772541,17.1438377 23.8826612,17.0417345 23.8061819,16.9167101 C23.7297025,16.7916857 23.6733493,16.6520751 23.6371223,16.4978784 C23.6008952,16.3436817 23.5827817,16.1915687 23.5827817,16.0415394 C23.5827817,15.6414614 23.7055512,15.3101468 23.9510901,15.0475956 C24.196629,14.7850444 24.5850636,14.6537688 25.1163938,14.6537688 Z" id="形状结合" fill="#A7BBFF" fill-rule="nonzero"></path>
                    </g>
                    <path d="M1.98424147,71.2805174 C3.94759516,72.4256992 5.52618169,72.997179 6.72000106,72.9949568 C7.91382042,72.9927345 9.49454549,72.4153737 11.4621763,71.2628744 C10.3100886,73.0093542 9.73278809,74.5577153 9.73027465,75.9079578 C9.72776121,77.2582003 10.2991808,78.8691508 11.4445333,80.7408092 C9.60169574,79.595403 8.02310921,79.0239232 6.70877373,79.0263698 C5.39443826,79.0288164 3.81371319,79.6061772 1.96659854,80.7584521 C3.11890784,78.8928852 3.69626862,77.3121602 3.69868087,76.0162769 C3.70109313,74.7203937 3.12961333,73.1418072 1.98424147,71.2805174 Z" id="矩形" fill="#6BD2A2" transform="translate(6.714387, 76.010663) rotate(45.000000) translate(-6.714387, -76.010663) "></path>
                    <path d="M15.4425835,1.35974411 C16.7874893,2.1441987 17.868828,2.53566487 18.6865995,2.53414261 C19.504371,2.53262035 20.5871746,2.13712569 21.9350103,1.34765862 C21.1458252,2.5440049 20.7503718,3.60463905 20.7486501,4.52956108 C20.7469284,5.45448312 21.1383533,6.55799123 21.9229248,7.84008543 C20.660573,7.05547717 19.5792343,6.66401101 18.6789087,6.66568694 C17.7785832,6.66736287 16.6957796,7.06285753 15.430498,7.85217092 C16.2198349,6.57424941 16.6153296,5.49144582 16.616982,4.60376016 C16.6186344,3.71607449 16.2271682,2.63473581 15.4425835,1.35974411 Z" id="矩形备份-12" fill="#BACAFF" transform="translate(18.682754, 4.599915) rotate(45.000000) translate(-18.682754, -4.599915) "></path>
                    <path d="M106.260722,69.9324395 C108.446194,71.2071782 110.20337,71.8433107 111.532249,71.840837 C112.861127,71.8383633 114.620683,71.1956845 116.810916,69.9128006 C115.52849,71.8568632 114.885879,73.5803937 114.883081,75.083392 C114.880283,76.5863904 115.516348,78.379591 116.791277,80.4629941 C114.739955,79.1880057 112.98278,78.5518732 111.519751,78.5545966 C110.056722,78.55732 108.297166,79.1999988 106.241084,80.482633 C107.523756,78.4060106 108.166435,76.6464548 108.16912,75.2039655 C108.171805,73.7614763 107.535673,72.004301 106.260722,69.9324395 Z" id="矩形备份-20" fill="#FFCF47" transform="translate(111.526000, 75.197717) rotate(45.000000) translate(-111.526000, -75.197717) "></path>
                    <g id="编组-29" transform="translate(79.000000, 53.506165) rotate(51.000000) translate(-79.000000, -53.506165) translate(73.000000, 20.002305)">
                        <rect id="矩形" fill="#FFAA8A" x="3.24369946e-11" y="10.3596899" width="12" height="42.1847039"></rect>
                        <g id="矩形" transform="translate(0.000000, 52.544394)">
                            <mask id="mask-2" fill="white">
                                <use xlink:href="#path-1"></use>
                            </mask>
                            <use id="蒙版" fill="#FFCE96" transform="translate(6.000000, 7.231664) scale(1, -1) translate(-6.000000, -7.231664) " xlink:href="#path-1"></use>
                            <rect fill="#1C3175" mask="url(#mask-2)" x="2.4" y="8.43694078" width="8.4" height="7.23166353"></rect>
                        </g>
                        <path d="M3.60411051e-12,1.80848711e-12 L12,1.80848711e-12 L12,4.35968992 C12,7.67339842 9.3137085,10.3596899 6,10.3596899 C2.6862915,10.3596899 3.6054045e-12,7.67339842 3.60411051e-12,4.35968992 L3.60411051e-12,1.80848711e-12 L3.60411051e-12,1.80848711e-12 Z" id="矩形" fill="#EA4B4D" transform="translate(6.000000, 5.179845) scale(1, -1) translate(-6.000000, -5.179845) "></path>
                        <line x1="6" y1="10.3596899" x2="6" y2="52.5443938" id="路径-37" stroke="#1C3175" stroke-width="0.57888061"></line>
                    </g>
                </g>
            </g>
        </g>
    </g>
</svg>