<svg width="15" height="15" viewBox="0 0 15 15" xmlns="http://www.w3.org/2000/svg">
    <g fill="none" fill-rule="evenodd">
        <path d="M0 0h15v15H0V0zm0 0h15v15H0V0z"/>
        <path d="M8.2 1.288 4.738 4.75c-.232.231-.363.55-.363.881v6.244c0 .688.563 1.25 1.25 1.25h5.625c.5 0 .95-.3 1.15-.756l2.037-4.756C14.963 6.374 14.057 5 12.713 5H9.18l.594-2.862a.942.942 0 0 0-.256-.857.93.93 0 0 0-1.319.007zM1.875 13.124c.688 0 1.25-.563 1.25-1.25v-5c0-.688-.563-1.25-1.25-1.25-.688 0-1.25.563-1.25 1.25v5c0 .688.563 1.25 1.25 1.25z" fill="#BBB"/>
    </g>
</svg>
