<svg width="24" height="24" viewBox="0 0 24 24" xmlns="http://www.w3.org/2000/svg">
    <g fill="none" fill-rule="evenodd">
        <path d="M21 16.606V5.4C21 4.08 19.92 3 18.6 3H5.4C4.08 3 3 4.08 3 5.4v15.753a.514.514 0 0 0 .793.433l4.007-2.58h10.8c1.32 0 2.4-1.08 2.4-2.4z" fill="#F54B4C"/>
        <path d="M14.916 17 16 15.972l-1.653-1.354c.52-.412.925-.969 1.213-1.67.289-.701.433-1.531.433-2.49v-.562c-.004-.986-.172-1.85-.502-2.594-.33-.743-.799-1.312-1.405-1.708C13.48 5.198 12.78 5 11.986 5c-.78 0-1.473.2-2.079.6-.606.401-1.075.979-1.408 1.733C8.166 8.088 8 8.958 8 9.944v.57c.004.967.173 1.822.506 2.562.333.741.804 1.312 1.415 1.712.61.4 1.303.6 2.079.6.309 0 .597-.03.866-.09L14.916 17zM12 13.944c-.736 0-1.308-.307-1.716-.923-.407-.616-.611-1.47-.611-2.563v-.59c.009-1.083.217-1.922.625-2.517.407-.595.97-.893 1.689-.893.74 0 1.313.294 1.719.882.405.588.608 1.452.608 2.59v.528c0 1.14-.2 2.005-.598 2.598-.4.592-.971.888-1.716.888z" fill="#FFF" fill-rule="nonzero"/>
    </g>
</svg>
