<svg xmlns="http://www.w3.org/2000/svg" xmlns:xlink="http://www.w3.org/1999/xlink" width="132" height="42" xmlns:v="https://vecta.io/nano"><defs><path id="A" d="M0 0h18.034v17.898H0z"/><path d="M4.522 3.964l2.867-2.108c.482-.354 1.121-.411 1.658-.148l3.596 1.765c.543.266.89.815.898 1.419l.138 9.883c.006.443-.348.808-.792.814l-8.363.02c-.443.001-.804-.358-.805-.801l.149-9.575c.008-.502.25-.971.654-1.269z" id="B"/><path id="C" d="M45.711 36.809h-.025c-.18.328-.465.605-.855.83s-.843.338-1.359.338c-.402 0-.779-.076-1.132-.228a2.76 2.76 0 0 1-.916-.633 2.97 2.97 0 0 1-.609-.959c-.148-.369-.221-.771-.221-1.205s.074-.836.221-1.205a2.92 2.92 0 0 1 .615-.959c.262-.271.58-.482.953-.633s.785-.228 1.236-.228a2.56 2.56 0 0 1 1.15.258 2.83 2.83 0 0 1 .916.726h.025v-4.379h.959v9.299h-.959v-1.021zm0-1.857a2.44 2.44 0 0 0-.141-.843c-.094-.258-.232-.484-.412-.676a1.96 1.96 0 0 0-.646-.455 2.06 2.06 0 0 0-.843-.166 2.06 2.06 0 0 0-.843.166 1.96 1.96 0 0 0-.646.455c-.18.193-.318.418-.412.676a2.44 2.44 0 0 0-.141.843 2.44 2.44 0 0 0 .141.843c.094.258.232.484.412.676a1.96 1.96 0 0 0 .646.455 2.06 2.06 0 0 0 .843.166 2.06 2.06 0 0 0 .843-.166 1.96 1.96 0 0 0 .646-.455c.18-.193.318-.418.412-.676a2.44 2.44 0 0 0 .141-.843z"/><path id="D" d="M63.373 36.784c-.344.443-.722.752-1.132.929s-.886.264-1.427.264c-.451 0-.857-.08-1.218-.24s-.666-.375-.916-.646a2.83 2.83 0 0 1-.578-.959c-.135-.369-.203-.763-.203-1.181 0-.443.074-.851.221-1.224s.353-.693.615-.959.574-.474.935-.621a3.09 3.09 0 0 1 1.181-.221 2.94 2.94 0 0 1 1.107.203 2.4 2.4 0 0 1 .867.59 2.65 2.65 0 0 1 .56.947c.131.373.197.797.197 1.273v.308h-4.649a2.02 2.02 0 0 0 .178.707c.102.226.236.422.4.59s.357.301.578.4.463.148.726.148c.418 0 .771-.074 1.058-.221s.545-.365.775-.652l.726.566zm-.824-2.349c-.016-.492-.176-.886-.48-1.181s-.722-.443-1.255-.443-.963.148-1.291.443-.525.689-.59 1.181h3.616z"/><path id="E" d="M65.194 36.317c.189.238.396.426.621.566s.51.209.855.209a2.12 2.12 0 0 0 .449-.049 1.35 1.35 0 0 0 .412-.16.91.91 0 0 0 .295-.277c.074-.111.111-.244.111-.4s-.035-.283-.105-.381-.162-.182-.277-.252-.246-.125-.394-.166l-.455-.111-.775-.197c-.246-.074-.461-.17-.646-.289a1.36 1.36 0 0 1-.443-.461c-.111-.189-.166-.431-.166-.726a1.45 1.45 0 0 1 .184-.738c.123-.213.287-.389.492-.529a2.41 2.41 0 0 1 .689-.32 2.81 2.81 0 0 1 .787-.111c.41 0 .789.082 1.138.246s.621.431.818.8l-.799.529c-.123-.205-.285-.371-.486-.498s-.445-.191-.732-.191c-.131 0-.264.016-.4.049a1.25 1.25 0 0 0-.363.148c-.107.066-.195.15-.264.252a.61.61 0 0 0-.105.351.45.45 0 0 0 .117.314c.078.086.184.162.32.228s.291.123.467.172.359.09.547.123c.254.049.496.113.726.191s.431.182.603.314.308.295.406.492.148.439.148.726c0 .328-.066.607-.197.836a1.63 1.63 0 0 1-.523.56c-.217.144-.463.248-.738.314s-.556.098-.843.098c-.492 0-.916-.076-1.273-.228s-.679-.433-.966-.843l.763-.59z"/></defs><g fill="none" fill-rule="evenodd"><g fill-rule="nonzero"><path d="M90.66 8.884c.582-.002 1.056.064 1.423.199s.659.314.874.536.364.48.445.773a3.44 3.44 0 0 1 .123.91c.003.735-.159 1.419-.486 2.052a5.48 5.48 0 0 1-1.316 1.658c-.551.473-1.184.855-1.899 1.146s-1.461.463-2.236.516l-.042.539-.017.477c.001.429.043.782.124 1.059s.2.493.356.649a1.26 1.26 0 0 0 .583.326 3.18 3.18 0 0 0 .816.09c.514-.002.98-.069 1.397-.203s.806-.317 1.168-.549A6.55 6.55 0 0 0 93 18.241l.976-1.007h.01l1.564-7.354c.091-.426.466-.731.901-.732l1.843-.006c.064 0 .129.006.192.019.5.104.821.594.717 1.094l-.041.197a4.73 4.73 0 0 1 .826-.74c.273-.187.54-.33.801-.43s.507-.167.739-.201a4.63 4.63 0 0 1 .651-.052 3.95 3.95 0 0 1 1.151.157c.354.106.661.274.919.505a2.32 2.32 0 0 1 .604.89c.145.363.218.796.22 1.3.001.339-.029.704-.091 1.097l-.23 1.202-.293 1.221-.293 1.165-.23 1.035c-.062.318-.093.597-.092.836.001.314.076.57.224.767s.42.296.817.294c.278-.001.522-.056.733-.164s.4-.262.567-.46.321-.437.459-.714l.273-.59.128-.308 1.581-7.428c.091-.426.466-.731.901-.732l1.843-.006c.064 0 .129.006.192.019.5.104.821.594.717 1.094l-.041.197a4.73 4.73 0 0 1 .826-.74c.273-.187.54-.33.801-.43s.507-.167.739-.201a4.63 4.63 0 0 1 .651-.052 3.95 3.95 0 0 1 1.151.157c.354.106.661.274.919.505a2.32 2.32 0 0 1 .604.89c.145.363.218.796.22 1.3.001.339-.029.704-.091 1.097l-.23 1.202-.293 1.221-.293 1.165-.23 1.035c-.062.318-.093.597-.092.836.001.314.076.57.224.767s.42.296.817.294c.278-.001.522-.056.733-.164s.4-.262.567-.46.321-.437.459-.714l.244-.523-.001-.056a10.04 10.04 0 0 1 .131-1.636l.993-6.24c.071-.448.457-.778.91-.779l2.334-.008c.05 0 .099.004.148.011.504.08.848.554.768 1.058l-1.036 6.526-.112.749a4.53 4.53 0 0 0-.066.79c.001.268.04.49.117.665a1.44 1.44 0 0 0 .276.429c.183.147.439.22.766.219s.632-.242.912-.724.487-1.138.622-1.97l1.215-7.002c.077-.442.459-.765.908-.767l2.16-.008c.05 0 .099.004.148.011.504.08.848.554.768 1.058l-1.486 9.355c-.551 3.55-1.28 5.357-2.433 6.765-.592.723-1.989 1.984-4.337 1.955-1.6.006-2.858-.295-3.775-.902s-1.376-1.418-1.38-2.434c-.003-.758.231-1.354.702-1.79s1.072-.655 1.803-.658c.64-.002 1.204.162 1.693.493.29.202.504.433.642.691-.349.371-.523.861-.521 1.471.003.813.309 1.219.919 1.216 1.006-.004 1.793-1.411 2.362-4.222l.348-1.907c-.789 1.001-1.907 1.503-3.355 1.509-1.364.005-2.414-.686-2.866-2.073l-.052.09-.137.215a5.59 5.59 0 0 1-1.26 1.365c-.425.328-.841.542-1.25.642a4.83 4.83 0 0 1-1.131.153c-.573.002-1.054-.077-1.442-.237s-.701-.373-.938-.641-.409-.572-.515-.915-.16-.638-.162-1.001c-.001-.429.058-.931.178-1.506l.392-1.767.392-1.748c.12-.562.18-1.045.178-1.45-.003-.867-.316-1.3-.94-1.297-.236.001-.455.064-.657.188s-.387.292-.555.504-.319.459-.453.745a7.09 7.09 0 0 0-.351.912l-1.574 7.414c-.09.426-.466.731-.901.733l-1.838.006c-.066 0-.131-.007-.196-.02-.5-.106-.818-.597-.712-1.097l.023-.107c-.207.233-.415.43-.624.591-.425.328-.841.542-1.25.642a4.83 4.83 0 0 1-1.131.153c-.573.002-1.054-.077-1.442-.237s-.701-.373-.938-.641-.409-.572-.515-.915-.16-.695-.162-1.059c-.001-.429.058-.931.178-1.506l.392-1.767.392-1.748c.12-.562.18-1.045.178-1.45-.003-.867-.316-1.3-.94-1.297-.236.001-.455.064-.657.188s-.387.292-.555.504-.319.459-.453.745a7.09 7.09 0 0 0-.351.912L96.891 21.1c-.09.426-.466.731-.901.733l-1.838.006c-.066 0-.131-.007-.196-.02-.5-.106-.818-.597-.712-1.097l.372-1.747-.281.325c-.392.431-.821.822-1.289 1.174a7.87 7.87 0 0 1-1.944 1.066c-.711.271-1.493.408-2.344.411-.615.002-1.172-.072-1.67-.223s-.924-.387-1.28-.708-.628-.735-.82-1.242-.288-1.12-.291-1.838c-.002-.487.047-1.049.146-1.685s.257-1.289.474-1.959a10.99 10.99 0 0 1 .866-1.973 7.77 7.77 0 0 1 1.309-1.733 6.09 6.09 0 0 1 1.804-1.233c.69-.312 1.478-.47 2.363-.473zm-3.424-4.57c.904 3.068-1.616 7.08-4.572 8.197-.946.419-2.016.63-3.21.634h-.019l-1.929 8.933c-.084.415-.431.724-.851.774l-.116.007-1.78.006a1.01 1.01 0 0 1-.209-.021.97.97 0 0 1-.762-1.149l3.276-15.114c.087-.4.421-.704.835-.759l1.819-.242a1.01 1.01 0 0 1 .357.016c.532.121.864.642.74 1.163l-1.207 5.589a9.36 9.36 0 0 0 1.645-.875c3.083-2.052 4.369-5.465 2.873-7.622s-5.208-2.241-8.291-.189c-1.955 1.302-3.188 3.151-3.446 4.88-4.642-2.208-1.271-6.695 4.073-7.945 5.619-1.315 9.87.65 10.773 3.717zM20.965 5.352c.397-.001.728.079.991.24a1.88 1.88 0 0 1 .638.647 2.92 2.92 0 0 1 .349.923 5.4 5.4 0 0 1 .108 1.07c.003.887-.069 1.863-.215 2.928s-.382 2.139-.705 3.222a20.49 20.49 0 0 1-1.229 3.143c-.496 1.013-1.091 1.912-1.786 2.698a8.51 8.51 0 0 1-2.393 1.898c-.9.479-1.908.72-3.025.724-1.073.004-1.952-.223-2.635-.68s-1.123-1.156-1.32-2.096c-.395.607-.801 1.092-1.219 1.456s-.827.646-1.229.848-.793.335-1.174.401-.732.1-1.054.101c-.494.002-.956-.072-1.386-.222s-.804-.386-1.122-.71-.569-.733-.753-1.23-.278-1.096-.28-1.799c-.001-.303.019-.635.061-.998s.105-.755.189-1.176l1.554-7.533c-2.653.519-2.18-3.382-2.009-3.61.015-.043.891.012 2.628.163l.495.044 3.116.292-.32-.032h.118c.032 0 .064.001.095.005l.094.014c.5.103.822.592.719 1.092L6.173 17.357c-.063.281-.095.563-.094.844a3.01 3.01 0 0 0 .05.551c.033.173.087.327.163.462a.91.91 0 0 0 .299.323c.124.081.504.12.697.119.322-.001.625-.075.893-.222s.511-.35.73-.611a4.04 4.04 0 0 0 .576-.935 9.38 9.38 0 0 0 .439-1.177l2.049-9.928c.088-.428.465-.736.902-.738l2.298-.008c.064 0 .127.006.19.019.5.103.822.592.719 1.092l-2.098 10.181c-.116.53-.174.93-.173 1.201.001.335.091.602.268.802.741.745 2.476.102 2.968-.278s.947-.882 1.363-1.505.795-1.33 1.136-2.12.63-1.597.869-2.42.424-1.626.555-2.41.196-1.479.194-2.085c-.021.054-.077.103-.169.147s-.19.079-.298.106-.215.047-.322.058a2.7 2.7 0 0 1-.258.017.89.89 0 0 1-.516-.152c-.151-.102-.277-.234-.38-.396a1.81 1.81 0 0 1-.227-.543c-.049-.2-.074-.397-.075-.592-.002-.519.16-.949.487-1.291s.844-.514 1.552-.516zm34.394-.847c.499.107.818.598.711 1.098l-1.093 5.109a4.73 4.73 0 0 1 .826-.74c.273-.187.54-.33.801-.43s.507-.167.739-.201a4.63 4.63 0 0 1 .651-.052 3.95 3.95 0 0 1 1.151.157c.354.106.661.274.919.505a2.32 2.32 0 0 1 .604.89c.145.363.218.796.22 1.3.001.339-.029.704-.091 1.097s-.138.793-.23 1.202-.189.816-.293 1.221l-.293 1.165c-.091.372-.168.717-.23 1.035s-.093.597-.092.836c.001.314.076.57.224.767s.42.296.817.294c.278-.001.522-.056.733-.164s.4-.262.567-.46.321-.437.459-.714.274-.581.408-.912l.176-.001a12.46 12.46 0 0 1 .131-1.183c.099-.636.257-1.289.474-1.959a10.99 10.99 0 0 1 .866-1.973 7.77 7.77 0 0 1 1.309-1.733 6.09 6.09 0 0 1 1.804-1.233c.69-.312 1.478-.47 2.363-.473.582-.002 1.056.064 1.423.199s.659.314.874.536.364.48.445.773a3.44 3.44 0 0 1 .123.91c.003.735-.159 1.419-.486 2.052a5.48 5.48 0 0 1-1.316 1.658c-.551.473-1.184.855-1.899 1.146s-1.461.463-2.236.516l-.042.539a6.42 6.42 0 0 0-.017.477c.001.429.043.782.124 1.059s.2.493.356.649a1.26 1.26 0 0 0 .583.326 3.18 3.18 0 0 0 .816.09c.514-.002.98-.069 1.397-.203s.806-.317 1.168-.549a6.55 6.55 0 0 0 1.028-.821c.323-.315.649-.651.976-1.007l.885-.003-.223.356a14.72 14.72 0 0 1-1.017 1.383c-.466.563-.991 1.065-1.575 1.504a7.87 7.87 0 0 1-1.944 1.066c-.711.271-1.493.408-2.344.411-.615.002-1.172-.072-1.67-.223s-.924-.387-1.28-.708-.628-.735-.82-1.242c-.058-.154-.107-.317-.148-.49a6.9 6.9 0 0 1-.378.64c-.415.621-.835 1.095-1.26 1.423s-.841.542-1.25.642a4.83 4.83 0 0 1-1.131.153c-.573.002-1.054-.077-1.442-.237s-.701-.373-.938-.641-.409-.572-.515-.915-.16-.695-.162-1.059c-.001-.429.058-.931.178-1.506l.392-1.767.392-1.748c.12-.562.18-1.045.178-1.45-.003-.867-.316-1.3-.94-1.297-.236.001-.455.064-.657.188s-.387.292-.555.504-.319.459-.453.745a7.09 7.09 0 0 0-.351.912l-1.574 7.414c-.09.426-.466.731-.901.733l-1.836.006c-.066 0-.132-.007-.197-.02-.499-.107-.818-.598-.711-1.098l.045-.211-.162.169a4.85 4.85 0 0 1-.801.645c-.341.216-.671.382-.991.499s-.625.196-.916.239-.55.064-.777.065a3.33 3.33 0 0 1-1.088-.17c-.338-.114-.631-.295-.881-.542s-.447-.56-.591-.939-.218-.837-.22-1.374c-.001-.231.015-.485.048-.762s.082-.576.149-.899l1.53-7.128-.403.001a.37.37 0 0 1-.363-.445l.057-.276a.37.37 0 0 1 .361-.295l.547-.002.633-2.878c.083-.379.394-.665.778-.718l1.882-.256c.107-.015.215-.01.321.013.499.108.816.601.708 1.1l-.591 2.726 1.104-.004a.37.37 0 0 1 .364.441l-.054.276a.37.37 0 0 1-.362.299l-1.252.004-1.63 7.611c-.042.141-.069.279-.081.415s-.018.271-.018.403c.001.355.086.6.255.736s.435.203.797.202a1.74 1.74 0 0 0 .739-.17c.24-.112.461-.268.662-.467s.382-.437.541-.714a4.37 4.37 0 0 0 .327-.712L52.38 5.472c.082-.381.393-.67.78-.723l1.882-.256c.106-.014.214-.01.318.012zm-25.77 4.881c2.217-.008 3.33 1.339 3.34 4.039l-.084 1.326c-.097 1.173-.323 2.231-.678 3.173s-.805 1.745-1.351 2.408-1.172 1.173-1.879 1.53-1.457.538-2.249.54a6.08 6.08 0 0 1-1.664-.211c-.511-.143-.95-.372-1.317-.689s-.656-.729-.864-1.236-.314-1.124-.316-1.851c-.002-.495.049-1.059.152-1.691s.269-1.283.499-1.953a11.56 11.56 0 0 1 .891-1.966 7.56 7.56 0 0 1 1.334-1.72c.525-.506 1.133-.914 1.823-1.226s1.478-.47 2.363-.473zm8.077.195c.064 0 .127.006.189.019.5.103.823.592.72 1.092l-.094.46a23.35 23.35 0 0 1 .693-.585c.235-.191.481-.359.738-.504a4.46 4.46 0 0 1 .802-.356c.278-.092.573-.138.885-.139.295-.001.554.052.778.158s.412.246.564.419a1.73 1.73 0 0 1 .344.606 2.29 2.29 0 0 1 .116.718 2.01 2.01 0 0 1-.111.663 1.71 1.71 0 0 1-.346.59 1.83 1.83 0 0 1-.586.429c-.236.112-.509.169-.821.17-.244.001-.432-.04-.563-.122a.84.84 0 0 1-.298-.309 1.44 1.44 0 0 1-.147-.402c-.03-.144-.062-.278-.096-.402s-.079-.227-.134-.309-.146-.123-.272-.123c-.396.001-.729.091-.998.27a7.54 7.54 0 0 0-.883.703l-1.886 8.913c-.09.426-.466.732-.901.733l-1.837.006c-.066 0-.131-.007-.196-.02-.5-.106-.818-.597-.712-1.097l2.306-10.843c.091-.426.466-.731.901-.732l1.846-.006zm-7.856 1.34c-.312.001-.611.12-.897.356s-.557.549-.812.938a8.47 8.47 0 0 0-.703 1.334c-.213.5-.395 1.015-.545 1.544s-.266 1.052-.349 1.568a8.79 8.79 0 0 0-.122 1.406 6.16 6.16 0 0 0 .073 1.028c.047.264.124.472.23.625s.243.257.412.314.375.085.62.085c.312-.001.625-.138.941-.412s.607-.646.875-1.118.504-1.03.709-1.675.356-1.339.454-2.083c.097-.673.132-1.486.105-2.441a4.4 4.4 0 0 0-.091-.687c-.043-.186-.102-.338-.179-.458s-.171-.204-.285-.253a1.1 1.1 0 0 0-.437-.073zm40.398-.628c-.329.001-.651.157-.966.468s-.611.714-.887 1.211a10.25 10.25 0 0 0-.734 1.681 14.6 14.6 0 0 0-.506 1.878c.489-.035.96-.173 1.415-.414s.854-.554 1.198-.939.619-.824.824-1.316a3.91 3.91 0 0 0 .304-1.531c-.001-.314-.048-.565-.142-.755s-.262-.284-.507-.283zm20.672-.072c-.329.001-.651.157-.966.468s-.611.714-.887 1.211a10.25 10.25 0 0 0-.734 1.681 14.6 14.6 0 0 0-.506 1.878c.489-.035.96-.173 1.415-.414s.854-.554 1.198-.939.619-.824.824-1.316a3.91 3.91 0 0 0 .304-1.531c-.001-.314-.048-.565-.142-.755s-.262-.284-.507-.283z" fill="#f54b4c"/><g fill="#000"><path d="M18.995 29.121h1.033v3.69h4.649v-3.69h1.033v8.708h-1.033V33.77h-4.649v4.059h-1.033zm8.635 3.69a2.7 2.7 0 0 1 1.052-.67c.406-.143.818-.215 1.236-.215.853 0 1.468.201 1.845.603s.566 1.013.566 1.833v2.472l.025.51.061.486h-.922a2 2 0 0 1-.055-.437l-.006-.424h-.025a2.25 2.25 0 0 1-.756.726c-.316.189-.695.283-1.138.283a3.01 3.01 0 0 1-.83-.111c-.258-.074-.484-.182-.676-.326a1.61 1.61 0 0 1-.461-.535 1.53 1.53 0 0 1-.172-.738c0-.476.123-.849.369-1.119a2.24 2.24 0 0 1 .916-.603c.365-.131.759-.213 1.181-.246l1.16-.049h.369v-.172c0-.418-.125-.734-.375-.947s-.601-.32-1.052-.32a2.81 2.81 0 0 0-.916.154 2.2 2.2 0 0 0-.793.474l-.603-.627zm2.78 2.251c-.615 0-1.103.086-1.464.258s-.541.455-.541.849c0 .361.121.617.363.769s.543.228.904.228a1.77 1.77 0 0 0 .732-.141 1.54 1.54 0 0 0 .523-.375 1.62 1.62 0 0 0 .32-.547c.074-.209.115-.433.123-.67v-.369h-.959zm3.677-1.623l-.025-.738-.025-.627h.91l.012.467.012.48h.025a1.66 1.66 0 0 1 .277-.406c.119-.131.26-.248.424-.351a2.27 2.27 0 0 1 .554-.246 2.3 2.3 0 0 1 .664-.092c.377 0 .703.057.978.172s.502.275.683.48.314.453.4.744a3.35 3.35 0 0 1 .129.953v3.555h-.959v-3.456c0-.484-.107-.865-.32-1.144s-.545-.418-.996-.418a1.87 1.87 0 0 0-.806.16 1.43 1.43 0 0 0-.553.455 2.04 2.04 0 0 0-.32.701 3.6 3.6 0 0 0-.105.898v2.804h-.959v-4.391z"/><use xlink:href="#C"/><path d="M48.072 34.435h3.014v.886h-3.014zm10.48-4.354h-2.878v7.749H54.64v-7.749h-2.878v-.959h6.79z"/><use xlink:href="#D"/><use xlink:href="#E"/><path d="M73.459 32.885h-1.697v2.878l.012.523c.008.16.041.299.098.418a.66.66 0 0 0 .258.283c.115.07.279.105.492.105a1.98 1.98 0 0 0 .43-.049 1.81 1.81 0 0 0 .418-.148l.037.873c-.164.074-.346.127-.547.16s-.392.049-.572.049c-.344 0-.619-.045-.824-.135a1.12 1.12 0 0 1-.48-.381 1.42 1.42 0 0 1-.228-.609c-.037-.242-.055-.51-.055-.806v-3.161h-1.255v-.812h1.255v-1.636h.959v1.636h1.697v.812zm6.323 3.899c-.344.443-.722.752-1.132.929s-.886.264-1.427.264c-.451 0-.857-.08-1.218-.24s-.666-.375-.916-.646a2.83 2.83 0 0 1-.578-.959c-.135-.369-.203-.763-.203-1.181a3.31 3.31 0 0 1 .221-1.224c.147-.373.353-.693.615-.959s.574-.474.935-.621a3.09 3.09 0 0 1 1.181-.221 2.94 2.94 0 0 1 1.107.203 2.4 2.4 0 0 1 .867.59 2.65 2.65 0 0 1 .56.947c.131.373.197.797.197 1.273v.308h-4.649a2.02 2.02 0 0 0 .178.707c.103.226.236.422.4.59s.357.301.578.4.463.148.726.148c.418 0 .771-.074 1.058-.221s.545-.365.775-.652l.726.566zm-.824-2.349c-.016-.492-.176-.886-.48-1.181s-.722-.443-1.255-.443-.964.148-1.291.443-.525.689-.59 1.181h3.616z"/><use xlink:href="#C" x="40.553"/><path d="M98.687 30.917c-.262-.353-.586-.617-.972-.793a2.87 2.87 0 0 0-1.205-.264c-.484 0-.929.098-1.335.295s-.756.461-1.052.793a3.64 3.64 0 0 0-.689 1.156c-.164.439-.246.896-.246 1.371a4.03 4.03 0 0 0 .246 1.421 3.55 3.55 0 0 0 .683 1.144 3.21 3.21 0 0 0 1.046.769c.406.189.855.283 1.347.283.533 0 1.009-.105 1.427-.314s.783-.51 1.095-.904l.775.652c-.394.525-.867.91-1.421 1.156s-1.179.369-1.876.369a4.44 4.44 0 0 1-1.747-.344 4.3 4.3 0 0 1-1.408-.953c-.398-.406-.709-.888-.935-1.445s-.338-1.169-.338-1.833a4.91 4.91 0 0 1 .326-1.796 4.35 4.35 0 0 1 .916-1.451 4.34 4.34 0 0 1 1.402-.972c.541-.238 1.136-.357 1.784-.357a4.65 4.65 0 0 1 1.704.32 3.13 3.13 0 0 1 1.371 1.046l-.898.652zm2.054 4.035c0-.451.078-.861.234-1.23a2.91 2.91 0 0 1 .64-.953c.271-.267.594-.474.972-.621a3.36 3.36 0 0 1 1.23-.221c.443 0 .853.074 1.23.221s.701.355.972.621a2.91 2.91 0 0 1 .64.953c.156.369.234.779.234 1.23s-.078.861-.234 1.23a2.91 2.91 0 0 1-.64.953c-.271.267-.594.474-.972.621a3.36 3.36 0 0 1-1.23.221c-.443 0-.853-.074-1.23-.221s-.701-.355-.972-.621a2.91 2.91 0 0 1-.64-.953c-.156-.369-.234-.779-.234-1.23zm1.033 0a2.44 2.44 0 0 0 .141.843 1.96 1.96 0 0 0 1.058 1.131 2.06 2.06 0 0 0 .843.166 2.06 2.06 0 0 0 .843-.166 1.96 1.96 0 0 0 .646-.455c.18-.193.318-.418.412-.676a2.44 2.44 0 0 0 .141-.843 2.44 2.44 0 0 0-.141-.843 1.96 1.96 0 0 0-1.058-1.131 2.06 2.06 0 0 0-.843-.166 2.06 2.06 0 0 0-.843.166 1.96 1.96 0 0 0-.646.455c-.18.193-.318.418-.412.676a2.44 2.44 0 0 0-.141.843z"/><use xlink:href="#C" x="67.453"/><use xlink:href="#D" x="57.663"/><use xlink:href="#E" x="57.662"/></g></g><g transform="translate(0 24.101)"><mask id="F" fill="#fff"><use xlink:href="#A"/></mask><g mask="url(#F)"><g transform="matrix(.965926 -.258819 .258819 .965926 -1.083441 1.346109)"><mask id="G" fill="#fff"><use xlink:href="#B" transform="matrix(.642788 .766044 -.766044 .642788 9.576166 -3.646355)"/></mask><use fill="#ea4b4d" transform="matrix(.642788 .766044 -.766044 .642788 9.576166 -3.646355)" xlink:href="#B"/><g fill="#fff"><path d="M11.604 6.296c.412 0 .747-.372.747-.83s-.334-.83-.747-.83-.747.372-.747.83.334.83.747.83z" stroke="#fff" stroke-width=".606" mask="url(#G)"/><path mask="url(#G)" transform="matrix(.766044 -.642788 .642788 .766044 -6.082546 6.002141)" d="M4.621 5.744l1.124.004.042 11.222-1.124-.004z"/></g></g></g></g><path d="M14.767 27.187c.641-.533 1.276-1.245 1.842-2.092l.384-.616c1.605-2.754 1.813-5.613.466-6.387s-3.74.833-5.345 3.587-1.813 5.613-.466 6.387" stroke="#000" stroke-width=".339" stroke-linecap="round"/><path d="M17.438 18.75l.647-.712 1.279 1.869-1.207 1.244c-.271.241-.597.475-.979.703l.26-3.104z" fill="#f54b4c"/></g></svg>